<?xml version="1.0" encoding="UTF-8" standalone="no"?>
<svg
   xmlns:dc="http://purl.org/dc/elements/1.1/"
   xmlns:cc="http://creativecommons.org/ns#"
   xmlns:rdf="http://www.w3.org/1999/02/22-rdf-syntax-ns#"
   xmlns:svg="http://www.w3.org/2000/svg"
   xmlns="http://www.w3.org/2000/svg"
   xmlns:sodipodi="http://sodipodi.sourceforge.net/DTD/sodipodi-0.dtd"
   xmlns:inkscape="http://www.inkscape.org/namespaces/inkscape"
   inkscape:export-ydpi="96"
   inkscape:export-xdpi="96"
   inkscape:export-filename="/home/jesper/www/html/yoshimi/img/divider.png"
   sodipodi:docname="divider.svg"
   inkscape:version="1.0alpha (9dee831, 2019-01-15)"
   id="svg986"
   version="1.1"
   viewBox="0 0 158.75 10.583333"
   height="40"
   width="600">
  <defs
     id="defs980" />
  <sodipodi:namedview
     inkscape:window-maximized="1"
     inkscape:window-y="20"
     inkscape:window-x="0"
     inkscape:window-height="1058"
     inkscape:window-width="1918"
     units="px"
     fit-margin-bottom="0"
     fit-margin-right="0"
     fit-margin-left="0"
     fit-margin-top="0"
     showgrid="false"
     inkscape:document-rotation="0"
     inkscape:current-layer="layer1"
     inkscape:document-units="mm"
     inkscape:cy="26.670369"
     inkscape:cx="315.25926"
     inkscape:zoom="1.979899"
     inkscape:pageshadow="2"
     inkscape:pageopacity="0.0"
     borderopacity="1.0"
     bordercolor="#666666"
     pagecolor="#ffffff"
     id="base" />
  <metadata
     id="metadata983">
    <rdf:RDF>
      <cc:Work
         rdf:about="">
        <dc:format>image/svg+xml</dc:format>
        <dc:type
           rdf:resource="http://purl.org/dc/dcmitype/StillImage" />
        <dc:title></dc:title>
      </cc:Work>
    </rdf:RDF>
  </metadata>
  <g
     transform="translate(-14.64955,-64.845984)"
     id="layer1"
     inkscape:groupmode="layer"
     inkscape:label="Layer 1">
    <rect
       ry="2.4153969"
       transform="matrix(0.16933333,0,0,0.16020659,43.626262,59.118664)"
       y="51.126179"
       x="295.2178"
       height="35.307365"
       width="4.83078"
       id="rect2210"
       style="color:#000000;overflow:visible;vector-effect:none;fill:#808080;stroke-width:1.00157;stroke-linejoin:round" />
    <rect
       style="color:#000000;overflow:visible;opacity:1;vector-effect:none;fill:#808080;stroke-width:1.00157;stroke-linejoin:round;stop-opacity:1"
       id="rect2212"
       width="4.83078"
       height="27.701225"
       x="295.2178"
       y="58.945248"
       transform="matrix(0.16933333,0,0,0.16020658,41.692384,58.495504)"
       ry="2.4153969" />
    <rect
       ry="2.4153969"
       transform="matrix(0.16933333,0,0,0.16020658,39.758507,57.851817)"
       y="68.709122"
       x="295.2178"
       height="16.588005"
       width="4.83078"
       id="rect2214"
       style="color:#000000;overflow:visible;opacity:1;vector-effect:none;fill:#808080;stroke-width:1.00157;stroke-linejoin:round;stop-opacity:1" />
    <rect
       style="color:#000000;overflow:visible;opacity:1;vector-effect:none;fill:#808080;stroke-width:1.00157;stroke-linejoin:round;stop-opacity:1"
       id="rect2216"
       width="4.83078"
       height="23.672218"
       x="295.2178"
       y="64.728249"
       transform="matrix(0.16933333,0,0,0.16020658,37.82463,57.90188)"
       ry="2.4153969" />
    <rect
       style="color:#000000;overflow:visible;opacity:1;vector-effect:none;fill:#808080;stroke-width:1.00157;stroke-linejoin:round;stop-opacity:1"
       id="rect2218"
       width="4.83078"
       height="16.461735"
       x="295.2178"
       y="68.709122"
       transform="matrix(0.16933333,0,0,0.16020658,35.890752,57.851817)"
       ry="2.4153969" />
    <rect
       ry="2.4153969"
       transform="matrix(0.16933333,0,0,0.16020658,33.956875,58.438287)"
       y="59.619923"
       x="295.2178"
       height="26.813623"
       width="4.83078"
       id="rect2220"
       style="color:#000000;overflow:visible;opacity:1;vector-effect:none;fill:#808080;stroke-width:1.00157;stroke-linejoin:round;stop-opacity:1" />
    <rect
       ry="2.4153969"
       transform="matrix(0.16933333,0,0,0.16020658,32.023001,57.851817)"
       y="66.941353"
       x="295.2178"
       height="19.492193"
       width="4.83078"
       id="rect2222"
       style="color:#000000;overflow:visible;opacity:1;vector-effect:none;fill:#808080;stroke-width:1.00157;stroke-linejoin:round;stop-opacity:1" />
    <rect
       style="color:#000000;overflow:visible;opacity:1;vector-effect:none;fill:#808080;stroke-width:1.00157;stroke-linejoin:round;stop-opacity:1"
       id="rect2224"
       width="4.83078"
       height="13.683818"
       x="295.2178"
       y="72.749733"
       transform="matrix(0.16933333,0,0,0.16020658,30.089124,57.386546)"
       ry="2.4153969" />
    <rect
       ry="2.4153969"
       transform="matrix(0.16933333,0,0,0.16020658,28.155246,57.224714)"
       y="74.770035"
       x="295.2178"
       height="11.66351"
       width="4.83078"
       id="rect2226"
       style="color:#000000;overflow:visible;opacity:1;vector-effect:none;fill:#808080;stroke-width:1.00157;stroke-linejoin:round;stop-opacity:1" />
    <rect
       style="color:#000000;overflow:visible;opacity:1;vector-effect:none;fill:#808080;stroke-width:1.00157;stroke-linejoin:round;stop-opacity:1"
       id="rect2228"
       width="4.83078"
       height="16.335468"
       x="295.2178"
       y="70.098076"
       transform="matrix(0.16933333,0,0,0.16020658,26.221369,57.598953)"
       ry="2.4153969" />
    <rect
       ry="2.4153969"
       transform="matrix(0.16933333,0,0,0.16020658,24.287492,57.406776)"
       y="72.497185"
       x="295.2178"
       height="13.936359"
       width="4.83078"
       id="rect2230"
       style="color:#000000;overflow:visible;opacity:1;vector-effect:none;fill:#808080;stroke-width:1.00157;stroke-linejoin:round;stop-opacity:1" />
    <rect
       style="color:#000000;overflow:visible;opacity:1;vector-effect:none;fill:#808080;stroke-width:1.00157;stroke-linejoin:round;stop-opacity:1"
       id="rect2232"
       width="4.83078"
       height="21.25997"
       x="295.2178"
       y="65.173576"
       transform="matrix(0.16933333,0,0,0.16020658,22.353614,57.993421)"
       ry="2.4153969" />
    <rect
       ry="2.4153969"
       transform="matrix(0.16933333,0,0,0.16020658,20.419737,57.416891)"
       y="72.370911"
       x="295.2178"
       height="14.062634"
       width="4.83078"
       id="rect2234"
       style="color:#000000;overflow:visible;opacity:1;vector-effect:none;fill:#808080;stroke-width:1.00157;stroke-linejoin:round;stop-opacity:1" />
    <rect
       style="color:#000000;overflow:visible;opacity:1;vector-effect:none;fill:#808080;stroke-width:1.00157;stroke-linejoin:round;stop-opacity:1"
       id="rect2236"
       width="4.83078"
       height="10.779641"
       x="295.2178"
       y="75.653908"
       transform="matrix(0.16933333,0,0,0.16020658,18.485859,57.153912)"
       ry="2.4153969" />
    <rect
       ry="2.4153969"
       transform="matrix(0.16933333,0,0,0.16020658,16.551982,57.052767)"
       y="76.916595"
       x="295.2178"
       height="9.5169497"
       width="4.83078"
       id="rect2238"
       style="color:#000000;overflow:visible;opacity:1;vector-effect:none;fill:#808080;stroke-width:1.00157;stroke-linejoin:round;stop-opacity:1" />
    <rect
       style="color:#000000;overflow:visible;opacity:1;vector-effect:none;fill:#808080;stroke-width:1.00157;stroke-linejoin:round;stop-opacity:1"
       id="rect2240"
       width="4.83078"
       height="9.5169497"
       x="295.2178"
       y="76.916595"
       transform="matrix(0.16933333,0,0,0.16020658,14.618104,57.052767)"
       ry="2.4153969" />
    <rect
       style="color:#000000;overflow:visible;opacity:1;vector-effect:none;fill:#808080;stroke-width:1.00157;stroke-linejoin:round;stop-opacity:1"
       id="rect2242"
       width="4.83078"
       height="14.062634"
       x="295.2178"
       y="72.370911"
       transform="matrix(0.16933333,0,0,0.16020658,12.684227,57.416891)"
       ry="2.4153969" />
    <rect
       ry="2.4153969"
       transform="matrix(0.16933333,0,0,0.16020658,10.75035,57.153912)"
       y="75.653908"
       x="295.2178"
       height="10.779641"
       width="4.83078"
       id="rect2244"
       style="color:#000000;overflow:visible;opacity:1;vector-effect:none;fill:#808080;stroke-width:1.00157;stroke-linejoin:round;stop-opacity:1" />
    <rect
       style="color:#000000;overflow:visible;opacity:1;vector-effect:none;fill:#808080;stroke-width:1.00157;stroke-linejoin:round;stop-opacity:1"
       id="rect2246"
       width="4.83078"
       height="9.5169497"
       x="295.2178"
       y="76.916595"
       transform="matrix(0.16933333,0,0,0.16020658,8.8164721,57.052767)"
       ry="2.4153969" />
    <rect
       ry="2.4153969"
       transform="matrix(0.16933333,0,0,0.16020658,6.8825947,57.052767)"
       y="76.916595"
       x="295.2178"
       height="9.5169497"
       width="4.83078"
       id="rect2248"
       style="color:#000000;overflow:visible;opacity:1;vector-effect:none;fill:#808080;stroke-width:1.00157;stroke-linejoin:round;stop-opacity:1" />
    <rect
       style="color:#000000;overflow:visible;opacity:1;vector-effect:none;fill:#808080;stroke-width:1.00157;stroke-linejoin:round;stop-opacity:1"
       id="rect2250"
       width="4.83078"
       height="6.2339578"
       x="295.2178"
       y="79.189438"
       transform="matrix(0.16933333,0,0,0.16020658,4.9487172,56.951621)"
       ry="2.4153969" />
    <rect
       style="color:#000000;overflow:visible;opacity:1;vector-effect:none;fill:#808080;stroke-width:1.00157;stroke-linejoin:round;stop-opacity:1"
       id="rect2252"
       width="4.83078"
       height="11.66351"
       x="295.2178"
       y="74.770035"
       transform="matrix(0.16933333,0,0,0.16020658,3.0148398,57.224714)"
       ry="2.4153969" />
    <rect
       ry="2.4153969"
       transform="matrix(0.16933333,0,0,0.16020658,1.0809624,57.598953)"
       y="70.098076"
       x="295.2178"
       height="16.335468"
       width="4.83078"
       id="rect2254"
       style="color:#000000;overflow:visible;opacity:1;vector-effect:none;fill:#808080;stroke-width:1.00157;stroke-linejoin:round;stop-opacity:1" />
    <rect
       style="color:#000000;overflow:visible;opacity:1;vector-effect:none;fill:#808080;stroke-width:1.00157;stroke-linejoin:round;stop-opacity:1"
       id="rect2256"
       width="4.83078"
       height="13.936359"
       x="295.2178"
       y="72.497185"
       transform="matrix(0.16933333,0,0,0.16020658,-0.85291507,57.406776)"
       ry="2.4153969" />
    <rect
       ry="2.4153969"
       transform="matrix(0.16933333,0,0,0.16020658,-2.7867905,57.993421)"
       y="65.173576"
       x="295.2178"
       height="21.25997"
       width="4.83078"
       id="rect2258"
       style="color:#000000;overflow:visible;opacity:1;vector-effect:none;fill:#808080;stroke-width:1.00157;stroke-linejoin:round;stop-opacity:1" />
    <rect
       style="color:#000000;overflow:visible;opacity:1;vector-effect:none;fill:#808080;stroke-width:1.00157;stroke-linejoin:round;stop-opacity:1"
       id="rect2260"
       width="4.83078"
       height="14.062634"
       x="295.2178"
       y="72.370911"
       transform="matrix(0.16933333,0,0,0.16020658,-4.7206639,57.416891)"
       ry="2.4153969" />
    <rect
       ry="2.4153969"
       transform="matrix(0.16933333,0,0,0.16020658,-6.6545373,57.153912)"
       y="75.653908"
       x="295.2178"
       height="10.779641"
       width="4.83078"
       id="rect2262"
       style="color:#000000;overflow:visible;opacity:1;vector-effect:none;fill:#808080;stroke-width:1.00157;stroke-linejoin:round;stop-opacity:1" />
    <rect
       style="color:#000000;overflow:visible;opacity:1;vector-effect:none;fill:#808080;stroke-width:1.00157;stroke-linejoin:round;stop-opacity:1"
       id="rect2264"
       width="4.83078"
       height="9.5169497"
       x="295.2178"
       y="76.916595"
       transform="matrix(0.16933333,0,0,0.16020658,-8.5884107,57.052767)"
       ry="2.4153969" />
    <rect
       ry="2.4153969"
       transform="matrix(0.16933333,0,0,0.16020658,-10.522284,57.052767)"
       y="76.916595"
       x="295.2178"
       height="9.5169497"
       width="4.83078"
       id="rect2266"
       style="color:#000000;overflow:visible;opacity:1;vector-effect:none;fill:#808080;stroke-width:1.00157;stroke-linejoin:round;stop-opacity:1" />
    <rect
       style="color:#000000;overflow:visible;opacity:1;vector-effect:none;fill:#808080;stroke-width:1.00157;stroke-linejoin:round;stop-opacity:1"
       id="rect2268"
       width="4.83078"
       height="9.5169497"
       x="295.2178"
       y="76.916595"
       transform="matrix(0.16933333,0,0,0.16020658,-12.456157,57.052767)"
       ry="2.4153969" />
    <rect
       ry="2.4153969"
       transform="matrix(0.16933333,0,0,0.16020658,-14.390031,56.951621)"
       y="79.189438"
       x="295.2178"
       height="6.2339578"
       width="4.83078"
       id="rect2270"
       style="color:#000000;overflow:visible;opacity:1;vector-effect:none;fill:#808080;stroke-width:1.00157;stroke-linejoin:round;stop-opacity:1" />
    <rect
       ry="2.4153969"
       transform="matrix(0.16933333,0,0,0.16020658,-18.257778,57.224714)"
       y="74.770035"
       x="295.2178"
       height="11.66351"
       width="4.83078"
       id="rect2272"
       style="color:#000000;overflow:visible;opacity:1;vector-effect:none;fill:#808080;stroke-width:1.00157;stroke-linejoin:round;stop-opacity:1" />
    <rect
       ry="2.4153969"
       transform="matrix(0.16933333,0,0,0.16020658,-16.323904,56.951621)"
       y="79.189438"
       x="295.2178"
       height="6.2339578"
       width="4.83078"
       id="rect2274"
       style="color:#000000;overflow:visible;opacity:1;vector-effect:none;fill:#808080;stroke-width:1.00157;stroke-linejoin:round;stop-opacity:1" />
    <rect
       ry="2.4153969"
       transform="matrix(0.16933333,0,0,0.16020658,-20.191652,56.951621)"
       y="79.189438"
       x="295.2178"
       height="6.2339578"
       width="4.83078"
       id="rect2276"
       style="color:#000000;overflow:visible;opacity:1;vector-effect:none;fill:#808080;stroke-width:1.00157;stroke-linejoin:round;stop-opacity:1" />
    <rect
       ry="2.4153969"
       transform="matrix(0.16933333,0,0,0.13393707,-22.125526,59.342084)"
       y="74.770035"
       x="295.2178"
       height="11.66351"
       width="4.83078"
       id="rect2278"
       style="color:#000000;overflow:visible;opacity:1;vector-effect:none;fill:#808080;stroke-width:1.00157;stroke-linejoin:round;stop-opacity:1" />
    <rect
       style="color:#000000;overflow:visible;opacity:1;vector-effect:none;fill:#808080;stroke-width:1.00157;stroke-linejoin:round;stop-opacity:1"
       id="rect2280"
       width="4.83078"
       height="16.335468"
       x="295.2178"
       y="70.098076"
       transform="matrix(0.16933333,0,0,0.13393707,-24.059401,59.654957)"
       ry="2.4153969" />
    <rect
       ry="2.4153969"
       transform="matrix(0.16933333,0,0,0.13393707,-25.993275,59.494292)"
       y="72.497185"
       x="295.2178"
       height="13.936359"
       width="4.83078"
       id="rect2282"
       style="color:#000000;overflow:visible;opacity:1;vector-effect:none;fill:#808080;stroke-width:1.00157;stroke-linejoin:round;stop-opacity:1" />
    <rect
       style="color:#000000;overflow:visible;opacity:1;vector-effect:none;fill:#808080;stroke-width:1.00157;stroke-linejoin:round;stop-opacity:1"
       id="rect2284"
       width="4.83078"
       height="6.2339578"
       x="295.2178"
       y="79.189438"
       transform="matrix(0.16933333,0,0,0.13393707,-29.861024,59.113771)"
       ry="2.4153969" />
    <rect
       style="color:#000000;overflow:visible;opacity:1;vector-effect:none;fill:#808080;stroke-width:1.00157;stroke-linejoin:round;stop-opacity:1"
       id="rect2286"
       width="4.83078"
       height="4.9712648"
       x="295.2178"
       y="80.452126"
       transform="matrix(0.16933333,0,0,0.11963424,-31.794898,60.215455)"
       ry="2.4153969" />
    <rect
       style="color:#000000;overflow:visible;opacity:1;vector-effect:none;fill:#808080;stroke-width:1.00157;stroke-linejoin:round;stop-opacity:1"
       id="rect2288"
       width="4.83078"
       height="9.5169497"
       x="295.2178"
       y="76.916595"
       transform="matrix(0.16933333,0,0,0.13393707,-27.92715,59.198331)"
       ry="2.4153969" />
    <rect
       ry="2.4153969"
       transform="matrix(0.16933333,0,0,0.09114974,-33.728773,62.577895)"
       y="80.452126"
       x="295.2178"
       height="4.9712648"
       width="4.83078"
       id="rect2290"
       style="color:#000000;overflow:visible;opacity:1;vector-effect:none;fill:#808080;stroke-width:1.00157;stroke-linejoin:round;stop-opacity:1" />
    <rect
       ry="2.4153969"
       transform="matrix(-0.16933333,0,0,0.16020658,146.35858,58.495504)"
       y="58.945248"
       x="295.2178"
       height="27.701225"
       width="4.83078"
       id="rect2336"
       style="color:#000000;overflow:visible;opacity:1;vector-effect:none;fill:#808080;stroke-width:1.00157;stroke-linejoin:round;stop-opacity:1" />
    <rect
       style="color:#000000;overflow:visible;opacity:1;vector-effect:none;fill:#808080;stroke-width:1.00157;stroke-linejoin:round;stop-opacity:1"
       id="rect2338"
       width="4.83078"
       height="16.588005"
       x="295.2178"
       y="68.709122"
       transform="matrix(-0.16933333,0,0,0.16020658,148.29246,57.851817)"
       ry="2.4153969" />
    <rect
       ry="2.4153969"
       transform="matrix(-0.16933333,0,0,0.16020658,150.22633,57.90188)"
       y="64.728249"
       x="295.2178"
       height="23.672218"
       width="4.83078"
       id="rect2340"
       style="color:#000000;overflow:visible;opacity:1;vector-effect:none;fill:#808080;stroke-width:1.00157;stroke-linejoin:round;stop-opacity:1" />
    <rect
       ry="2.4153969"
       transform="matrix(-0.16933333,0,0,0.16020658,152.16021,57.851817)"
       y="68.709122"
       x="295.2178"
       height="16.461735"
       width="4.83078"
       id="rect2342"
       style="color:#000000;overflow:visible;opacity:1;vector-effect:none;fill:#808080;stroke-width:1.00157;stroke-linejoin:round;stop-opacity:1" />
    <rect
       style="color:#000000;overflow:visible;opacity:1;vector-effect:none;fill:#808080;stroke-width:1.00157;stroke-linejoin:round;stop-opacity:1"
       id="rect2344"
       width="4.83078"
       height="26.813623"
       x="295.2178"
       y="59.619923"
       transform="matrix(-0.16933333,0,0,0.16020658,154.09409,58.438287)"
       ry="2.4153969" />
    <rect
       style="color:#000000;overflow:visible;opacity:1;vector-effect:none;fill:#808080;stroke-width:1.00157;stroke-linejoin:round;stop-opacity:1"
       id="rect2346"
       width="4.83078"
       height="19.492193"
       x="295.2178"
       y="66.941353"
       transform="matrix(-0.16933333,0,0,0.16020658,156.02797,57.851817)"
       ry="2.4153969" />
    <rect
       ry="2.4153969"
       transform="matrix(-0.16933333,0,0,0.16020658,157.96184,57.386546)"
       y="72.749733"
       x="295.2178"
       height="13.683818"
       width="4.83078"
       id="rect2348"
       style="color:#000000;overflow:visible;opacity:1;vector-effect:none;fill:#808080;stroke-width:1.00157;stroke-linejoin:round;stop-opacity:1" />
    <rect
       style="color:#000000;overflow:visible;opacity:1;vector-effect:none;fill:#808080;stroke-width:1.00157;stroke-linejoin:round;stop-opacity:1"
       id="rect2350"
       width="4.83078"
       height="11.66351"
       x="295.2178"
       y="74.770035"
       transform="matrix(-0.16933333,0,0,0.16020658,159.89572,57.224714)"
       ry="2.4153969" />
    <rect
       ry="2.4153969"
       transform="matrix(-0.16933333,0,0,0.16020658,161.8296,57.598953)"
       y="70.098076"
       x="295.2178"
       height="16.335468"
       width="4.83078"
       id="rect2352"
       style="color:#000000;overflow:visible;opacity:1;vector-effect:none;fill:#808080;stroke-width:1.00157;stroke-linejoin:round;stop-opacity:1" />
    <rect
       style="color:#000000;overflow:visible;opacity:1;vector-effect:none;fill:#808080;stroke-width:1.00157;stroke-linejoin:round;stop-opacity:1"
       id="rect2354"
       width="4.83078"
       height="13.936359"
       x="295.2178"
       y="72.497185"
       transform="matrix(-0.16933333,0,0,0.16020658,163.76348,57.406776)"
       ry="2.4153969" />
    <rect
       ry="2.4153969"
       transform="matrix(-0.16933333,0,0,0.16020658,165.69735,57.993421)"
       y="65.173576"
       x="295.2178"
       height="21.25997"
       width="4.83078"
       id="rect2356"
       style="color:#000000;overflow:visible;opacity:1;vector-effect:none;fill:#808080;stroke-width:1.00157;stroke-linejoin:round;stop-opacity:1" />
    <rect
       style="color:#000000;overflow:visible;opacity:1;vector-effect:none;fill:#808080;stroke-width:1.00157;stroke-linejoin:round;stop-opacity:1"
       id="rect2358"
       width="4.83078"
       height="14.062634"
       x="295.2178"
       y="72.370911"
       transform="matrix(-0.16933333,0,0,0.16020658,167.63123,57.416891)"
       ry="2.4153969" />
    <rect
       ry="2.4153969"
       transform="matrix(-0.16933333,0,0,0.16020658,169.56511,57.153912)"
       y="75.653908"
       x="295.2178"
       height="10.779641"
       width="4.83078"
       id="rect2360"
       style="color:#000000;overflow:visible;opacity:1;vector-effect:none;fill:#808080;stroke-width:1.00157;stroke-linejoin:round;stop-opacity:1" />
    <rect
       style="color:#000000;overflow:visible;opacity:1;vector-effect:none;fill:#808080;stroke-width:1.00157;stroke-linejoin:round;stop-opacity:1"
       id="rect2362"
       width="4.83078"
       height="9.5169497"
       x="295.2178"
       y="76.916595"
       transform="matrix(-0.16933333,0,0,0.16020658,171.49899,57.052767)"
       ry="2.4153969" />
    <rect
       ry="2.4153969"
       transform="matrix(-0.16933333,0,0,0.16020658,173.43286,57.052767)"
       y="76.916595"
       x="295.2178"
       height="9.5169497"
       width="4.83078"
       id="rect2364"
       style="color:#000000;overflow:visible;opacity:1;vector-effect:none;fill:#808080;stroke-width:1.00157;stroke-linejoin:round;stop-opacity:1" />
    <rect
       ry="2.4153969"
       transform="matrix(-0.16933333,0,0,0.16020658,175.36674,57.416891)"
       y="72.370911"
       x="295.2178"
       height="14.062634"
       width="4.83078"
       id="rect2366"
       style="color:#000000;overflow:visible;opacity:1;vector-effect:none;fill:#808080;stroke-width:1.00157;stroke-linejoin:round;stop-opacity:1" />
    <rect
       style="color:#000000;overflow:visible;opacity:1;vector-effect:none;fill:#808080;stroke-width:1.00157;stroke-linejoin:round;stop-opacity:1"
       id="rect2368"
       width="4.83078"
       height="10.779641"
       x="295.2178"
       y="75.653908"
       transform="matrix(-0.16933333,0,0,0.16020658,177.30062,57.153912)"
       ry="2.4153969" />
    <rect
       ry="2.4153969"
       transform="matrix(-0.16933333,0,0,0.16020658,179.2345,57.052767)"
       y="76.916595"
       x="295.2178"
       height="9.5169497"
       width="4.83078"
       id="rect2370"
       style="color:#000000;overflow:visible;opacity:1;vector-effect:none;fill:#808080;stroke-width:1.00157;stroke-linejoin:round;stop-opacity:1" />
    <rect
       style="color:#000000;overflow:visible;opacity:1;vector-effect:none;fill:#808080;stroke-width:1.00157;stroke-linejoin:round;stop-opacity:1"
       id="rect2372"
       width="4.83078"
       height="9.5169497"
       x="295.2178"
       y="76.916595"
       transform="matrix(-0.16933333,0,0,0.16020658,181.16837,57.052767)"
       ry="2.4153969" />
    <rect
       ry="2.4153969"
       transform="matrix(-0.16933333,0,0,0.16020658,183.10225,56.951621)"
       y="79.189438"
       x="295.2178"
       height="6.2339578"
       width="4.83078"
       id="rect2374"
       style="color:#000000;overflow:visible;opacity:1;vector-effect:none;fill:#808080;stroke-width:1.00157;stroke-linejoin:round;stop-opacity:1" />
    <rect
       ry="2.4153969"
       transform="matrix(-0.16933333,0,0,0.16020658,185.03613,57.224714)"
       y="74.770035"
       x="295.2178"
       height="11.66351"
       width="4.83078"
       id="rect2376"
       style="color:#000000;overflow:visible;opacity:1;vector-effect:none;fill:#808080;stroke-width:1.00157;stroke-linejoin:round;stop-opacity:1" />
    <rect
       style="color:#000000;overflow:visible;opacity:1;vector-effect:none;fill:#808080;stroke-width:1.00157;stroke-linejoin:round;stop-opacity:1"
       id="rect2378"
       width="4.83078"
       height="16.335468"
       x="295.2178"
       y="70.098076"
       transform="matrix(-0.16933333,0,0,0.16020658,186.97001,57.598953)"
       ry="2.4153969" />
    <rect
       ry="2.4153969"
       transform="matrix(-0.16933333,0,0,0.16020658,188.90388,57.406776)"
       y="72.497185"
       x="295.2178"
       height="13.936359"
       width="4.83078"
       id="rect2380"
       style="color:#000000;overflow:visible;opacity:1;vector-effect:none;fill:#808080;stroke-width:1.00157;stroke-linejoin:round;stop-opacity:1" />
    <rect
       style="color:#000000;overflow:visible;opacity:1;vector-effect:none;fill:#808080;stroke-width:1.00157;stroke-linejoin:round;stop-opacity:1"
       id="rect2382"
       width="4.83078"
       height="21.25997"
       x="295.2178"
       y="65.173576"
       transform="matrix(-0.16933333,0,0,0.16020658,190.83776,57.993421)"
       ry="2.4153969" />
    <rect
       ry="2.4153969"
       transform="matrix(-0.16933333,0,0,0.16020658,192.77164,57.416891)"
       y="72.370911"
       x="295.2178"
       height="14.062634"
       width="4.83078"
       id="rect2384"
       style="color:#000000;overflow:visible;opacity:1;vector-effect:none;fill:#808080;stroke-width:1.00157;stroke-linejoin:round;stop-opacity:1" />
    <rect
       style="color:#000000;overflow:visible;opacity:1;vector-effect:none;fill:#808080;stroke-width:1.00157;stroke-linejoin:round;stop-opacity:1"
       id="rect2386"
       width="4.83078"
       height="10.779641"
       x="295.2178"
       y="75.653908"
       transform="matrix(-0.16933333,0,0,0.16020658,194.70551,57.153912)"
       ry="2.4153969" />
    <rect
       ry="2.4153969"
       transform="matrix(-0.16933333,0,0,0.16020658,196.63939,57.052767)"
       y="76.916595"
       x="295.2178"
       height="9.5169497"
       width="4.83078"
       id="rect2388"
       style="color:#000000;overflow:visible;opacity:1;vector-effect:none;fill:#808080;stroke-width:1.00157;stroke-linejoin:round;stop-opacity:1" />
    <rect
       style="color:#000000;overflow:visible;opacity:1;vector-effect:none;fill:#808080;stroke-width:1.00157;stroke-linejoin:round;stop-opacity:1"
       id="rect2390"
       width="4.83078"
       height="9.5169497"
       x="295.2178"
       y="76.916595"
       transform="matrix(-0.16933333,0,0,0.16020658,198.57327,57.052767)"
       ry="2.4153969" />
    <rect
       ry="2.4153969"
       transform="matrix(-0.16933333,0,0,0.16020658,200.50715,57.052767)"
       y="76.916595"
       x="295.2178"
       height="9.5169497"
       width="4.83078"
       id="rect2392"
       style="color:#000000;overflow:visible;opacity:1;vector-effect:none;fill:#808080;stroke-width:1.00157;stroke-linejoin:round;stop-opacity:1" />
    <rect
       style="color:#000000;overflow:visible;opacity:1;vector-effect:none;fill:#808080;stroke-width:1.00157;stroke-linejoin:round;stop-opacity:1"
       id="rect2394"
       width="4.83078"
       height="6.2339578"
       x="295.2178"
       y="79.189438"
       transform="matrix(-0.16933333,0,0,0.16020658,202.44102,56.951621)"
       ry="2.4153969" />
    <rect
       style="color:#000000;overflow:visible;opacity:1;vector-effect:none;fill:#808080;stroke-width:1.00157;stroke-linejoin:round;stop-opacity:1"
       id="rect2396"
       width="4.83078"
       height="11.66351"
       x="295.2178"
       y="74.770035"
       transform="matrix(-0.16933333,0,0,0.16020658,206.30874,57.224714)"
       ry="2.4153969" />
    <rect
       style="color:#000000;overflow:visible;opacity:1;vector-effect:none;fill:#808080;stroke-width:1.00157;stroke-linejoin:round;stop-opacity:1"
       id="rect2398"
       width="4.83078"
       height="6.2339578"
       x="295.2178"
       y="79.189438"
       transform="matrix(-0.16933333,0,0,0.16020658,204.37488,56.951621)"
       ry="2.4153969" />
    <rect
       style="color:#000000;overflow:visible;opacity:1;vector-effect:none;fill:#808080;stroke-width:1.00157;stroke-linejoin:round;stop-opacity:1"
       id="rect2400"
       width="4.83078"
       height="6.2339578"
       x="295.2178"
       y="79.189438"
       transform="matrix(-0.16933333,0,0,0.16020658,208.2426,56.951621)"
       ry="2.4153969" />
    <rect
       style="color:#000000;overflow:visible;opacity:1;vector-effect:none;fill:#808080;stroke-width:1.00157;stroke-linejoin:round;stop-opacity:1"
       id="rect2402"
       width="4.83078"
       height="11.66351"
       x="295.2178"
       y="74.770035"
       transform="matrix(-0.16933333,0,0,0.13393707,210.17646,59.342084)"
       ry="2.4153969" />
    <rect
       ry="2.4153969"
       transform="matrix(-0.16933333,0,0,0.13393707,212.11032,59.654957)"
       y="70.098076"
       x="295.2178"
       height="16.335468"
       width="4.83078"
       id="rect2404"
       style="color:#000000;overflow:visible;opacity:1;vector-effect:none;fill:#808080;stroke-width:1.00157;stroke-linejoin:round;stop-opacity:1" />
    <rect
       style="color:#000000;overflow:visible;opacity:1;vector-effect:none;fill:#808080;stroke-width:1.00157;stroke-linejoin:round;stop-opacity:1"
       id="rect2406"
       width="4.83078"
       height="13.936359"
       x="295.2178"
       y="72.497185"
       transform="matrix(-0.16933333,0,0,0.13393707,214.04418,59.494292)"
       ry="2.4153969" />
    <rect
       ry="2.4153969"
       transform="matrix(-0.16933333,0,0,0.13393707,217.91191,59.113771)"
       y="79.189438"
       x="295.2178"
       height="6.2339578"
       width="4.83078"
       id="rect2408"
       style="color:#000000;overflow:visible;opacity:1;vector-effect:none;fill:#808080;stroke-width:1.00157;stroke-linejoin:round;stop-opacity:1" />
    <rect
       ry="2.4153969"
       transform="matrix(-0.16933333,0,0,0.11963424,219.84577,60.215455)"
       y="80.452126"
       x="295.2178"
       height="4.9712648"
       width="4.83078"
       id="rect2410"
       style="color:#000000;overflow:visible;opacity:1;vector-effect:none;fill:#808080;stroke-width:1.00157;stroke-linejoin:round;stop-opacity:1" />
    <rect
       ry="2.4153969"
       transform="matrix(-0.16933333,0,0,0.13393707,215.97805,59.198331)"
       y="76.916595"
       x="295.2178"
       height="9.5169497"
       width="4.83078"
       id="rect2412"
       style="color:#000000;overflow:visible;opacity:1;vector-effect:none;fill:#808080;stroke-width:1.00157;stroke-linejoin:round;stop-opacity:1" />
    <rect
       style="color:#000000;overflow:visible;opacity:1;vector-effect:none;fill:#808080;stroke-width:1.00157;stroke-linejoin:round;stop-opacity:1"
       id="rect2414"
       width="4.83078"
       height="4.9712648"
       x="295.2178"
       y="80.452126"
       transform="matrix(-0.16933333,0,0,0.09114974,221.77963,62.577895)"
       ry="2.4153969" />
  </g>
</svg>
