<?xml version="1.0" encoding="UTF-8" standalone="no"?>
<!-- Created with Inkscape (http://www.inkscape.org/) -->

<svg
   xmlns:dc="http://purl.org/dc/elements/1.1/"
   xmlns:cc="http://creativecommons.org/ns#"
   xmlns:rdf="http://www.w3.org/1999/02/22-rdf-syntax-ns#"
   xmlns:svg="http://www.w3.org/2000/svg"
   xmlns="http://www.w3.org/2000/svg"
   xmlns:xlink="http://www.w3.org/1999/xlink"
   xmlns:sodipodi="http://sodipodi.sourceforge.net/DTD/sodipodi-0.dtd"
   xmlns:inkscape="http://www.inkscape.org/namespaces/inkscape"
   width="16"
   height="16"
   viewBox="0 0 4.2333332 4.2333333"
   version="1.1"
   id="svg8524"
   sodipodi:docname="favicon.svg"
   inkscape:export-filename="/home/jesper/www/html/yoshimi/img/favicon.png"
   inkscape:export-xdpi="96.000008"
   inkscape:export-ydpi="96.000008"
   inkscape:version="0.92.4 (unknown)">
  <defs
     id="defs8518">
    <filter
       height="1.0902328"
       y="-0.045116402"
       width="1.1025547"
       x="-0.051277373"
       id="filter12928-6-4"
       style="color-interpolation-filters:sRGB"
       inkscape:collect="always">
      <feGaussianBlur
         id="feGaussianBlur12930-7-3"
         stdDeviation="0.87397138"
         inkscape:collect="always" />
    </filter>
    <mask
       id="mask5419-9-5-1-7"
       maskUnits="userSpaceOnUse">
      <g
         id="use5421-7-3-4-3"
         transform="translate(1842.0573,-2655.4198)">
        <rect
           style="color:#000000;clip-rule:nonzero;display:inline;overflow:visible;visibility:visible;opacity:1;isolation:auto;mix-blend-mode:normal;color-interpolation:sRGB;color-interpolation-filters:linearRGB;solid-color:#000000;solid-opacity:1;fill:#ffffff;fill-opacity:1;fill-rule:nonzero;stroke:none;stroke-width:5.00393009;stroke-linecap:round;stroke-linejoin:round;stroke-miterlimit:4;stroke-dasharray:none;stroke-dashoffset:0;stroke-opacity:1;marker:none;marker-start:none;marker-mid:none;marker-end:none;color-rendering:auto;image-rendering:auto;shape-rendering:auto;text-rendering:auto;enable-background:accumulate"
           id="rect5461-1-9-2"
           width="61.125"
           height="23.75"
           x="30.875"
           y="920.125"
           transform="translate(0,732.36223)" />
        <path
           sodipodi:nodetypes="ccccc"
           inkscape:connector-curvature="0"
           transform="matrix(0.25836428,0,0,0.078125,-448.51152,1742.0117)"
           style="color:#000000;clip-rule:nonzero;display:inline;overflow:visible;visibility:visible;opacity:1;isolation:auto;mix-blend-mode:normal;color-interpolation:sRGB;color-interpolation-filters:linearRGB;solid-color:#000000;solid-opacity:1;fill:#000000;fill-opacity:1;fill-rule:evenodd;stroke:none;stroke-width:1;stroke-linecap:butt;stroke-linejoin:miter;stroke-miterlimit:4;stroke-dasharray:none;stroke-dashoffset:0;stroke-opacity:1;marker:none;marker-start:none;marker-mid:none;marker-end:none;color-rendering:auto;image-rendering:auto;shape-rendering:auto;text-rendering:auto;enable-background:accumulate"
           d="m 1879.0167,-998.06976 h 193.6372 v 14.11071 h -193.6372 z"
           id="path5463-3-5-2-3" />
        <path
           sodipodi:nodetypes="ccccc"
           inkscape:connector-curvature="0"
           transform="matrix(0,0.32899626,-0.078125,0,-30.935257,1038.2901)"
           style="color:#000000;clip-rule:nonzero;display:inline;overflow:visible;visibility:visible;opacity:1;isolation:auto;mix-blend-mode:normal;color-interpolation:sRGB;color-interpolation-filters:linearRGB;solid-color:#000000;solid-opacity:1;fill:#000000;fill-opacity:1;fill-rule:evenodd;stroke:none;stroke-width:1;stroke-linecap:butt;stroke-linejoin:miter;stroke-miterlimit:4;stroke-dasharray:none;stroke-dashoffset:0;stroke-opacity:1;marker:none;marker-start:none;marker-mid:none;marker-end:none;color-rendering:auto;image-rendering:auto;shape-rendering:auto;text-rendering:auto;enable-background:accumulate"
           d="m 1879.0167,-998.06976 h 49.2959 v 14.11072 h -49.2959 z"
           id="path5465-1-0-8" />
        <path
           sodipodi:nodetypes="ccccc"
           inkscape:connector-curvature="0"
           transform="matrix(0,0.32899626,-0.078125,0,-20.855606,1038.2901)"
           style="color:#000000;clip-rule:nonzero;display:inline;overflow:visible;visibility:visible;opacity:1;isolation:auto;mix-blend-mode:normal;color-interpolation:sRGB;color-interpolation-filters:linearRGB;solid-color:#000000;solid-opacity:1;fill:#000000;fill-opacity:1;fill-rule:evenodd;stroke:none;stroke-width:1;stroke-linecap:butt;stroke-linejoin:miter;stroke-miterlimit:4;stroke-dasharray:none;stroke-dashoffset:0;stroke-opacity:1;marker:none;marker-start:none;marker-mid:none;marker-end:none;color-rendering:auto;image-rendering:auto;shape-rendering:auto;text-rendering:auto;enable-background:accumulate"
           d="m 1879.0167,-998.06976 h 49.2959 v 14.11072 h -49.2959 z"
           id="path5467-2-6-0" />
        <path
           sodipodi:nodetypes="ccccc"
           inkscape:connector-curvature="0"
           transform="matrix(0,0.32899626,-0.078125,0,-10.775955,1038.2901)"
           style="color:#000000;clip-rule:nonzero;display:inline;overflow:visible;visibility:visible;opacity:1;isolation:auto;mix-blend-mode:normal;color-interpolation:sRGB;color-interpolation-filters:linearRGB;solid-color:#000000;solid-opacity:1;fill:#000000;fill-opacity:1;fill-rule:evenodd;stroke:none;stroke-width:1;stroke-linecap:butt;stroke-linejoin:miter;stroke-miterlimit:4;stroke-dasharray:none;stroke-dashoffset:0;stroke-opacity:1;marker:none;marker-start:none;marker-mid:none;marker-end:none;color-rendering:auto;image-rendering:auto;shape-rendering:auto;text-rendering:auto;enable-background:accumulate"
           d="m 1879.0167,-998.06976 h 49.2959 v 14.11072 h -49.2959 z"
           id="path5469-0-8-0" />
        <path
           sodipodi:nodetypes="ccccc"
           inkscape:connector-curvature="0"
           transform="matrix(0,0.32899626,-0.078125,0,-0.696304,1038.2901)"
           style="color:#000000;clip-rule:nonzero;display:inline;overflow:visible;visibility:visible;opacity:1;isolation:auto;mix-blend-mode:normal;color-interpolation:sRGB;color-interpolation-filters:linearRGB;solid-color:#000000;solid-opacity:1;fill:#000000;fill-opacity:1;fill-rule:evenodd;stroke:none;stroke-width:1;stroke-linecap:butt;stroke-linejoin:miter;stroke-miterlimit:4;stroke-dasharray:none;stroke-dashoffset:0;stroke-opacity:1;marker:none;marker-start:none;marker-mid:none;marker-end:none;color-rendering:auto;image-rendering:auto;shape-rendering:auto;text-rendering:auto;enable-background:accumulate"
           d="m 1879.0167,-998.06976 h 49.2959 v 14.11072 h -49.2959 z"
           id="path5471-6-9-9" />
      </g>
    </mask>
    <filter
       height="1.2223845"
       y="-0.11119224"
       width="1.1064717"
       x="-0.053235821"
       id="filter5175"
       style="color-interpolation-filters:sRGB"
       inkscape:collect="always">
      <feGaussianBlur
         id="feGaussianBlur5177"
         stdDeviation="1.2419087"
         inkscape:collect="always" />
    </filter>
    <linearGradient
       y2="91.862991"
       x2="283.82126"
       y1="29.406559"
       x1="194.55086"
       gradientUnits="userSpaceOnUse"
       id="linearGradient5273"
       xlink:href="#linearGradient5289"
       inkscape:collect="always" />
    <linearGradient
       inkscape:collect="always"
       id="linearGradient5289">
      <stop
         style="stop-color:#ff9dca;stop-opacity:1"
         offset="0"
         id="stop5275" />
      <stop
         id="stop5277"
         offset="0.11182272"
         style="stop-color:#f083b4;stop-opacity:1" />
      <stop
         style="stop-color:#ff96ce;stop-opacity:1"
         offset="0.25565284"
         id="stop5279" />
      <stop
         style="stop-color:#f280b3;stop-opacity:1;"
         offset="0.40312171"
         id="stop5281" />
      <stop
         style="stop-color:#f173ab;stop-opacity:1"
         offset="0.62393802"
         id="stop5283" />
      <stop
         style="stop-color:#e0669d;stop-opacity:1"
         offset="1"
         id="stop5285" />
      <stop
         style="stop-color:#e476a7;stop-opacity:1"
         offset="1"
         id="stop5287" />
    </linearGradient>
  </defs>
  <sodipodi:namedview
     id="base"
     pagecolor="#ffffff"
     bordercolor="#666666"
     borderopacity="1.0"
     inkscape:pageopacity="0.0"
     inkscape:pageshadow="2"
     inkscape:zoom="44.8"
     inkscape:cx="9.5152642"
     inkscape:cy="11.658004"
     inkscape:document-units="mm"
     inkscape:current-layer="layer1"
     showgrid="false"
     fit-margin-top="0"
     fit-margin-left="0"
     fit-margin-right="0"
     fit-margin-bottom="0"
     units="px"
     inkscape:window-width="1918"
     inkscape:window-height="1058"
     inkscape:window-x="0"
     inkscape:window-y="20"
     inkscape:window-maximized="1" />
  <metadata
     id="metadata8521">
    <rdf:RDF>
      <cc:Work
         rdf:about="">
        <dc:format>image/svg+xml</dc:format>
        <dc:type
           rdf:resource="http://purl.org/dc/dcmitype/StillImage" />
        <dc:title></dc:title>
      </cc:Work>
    </rdf:RDF>
  </metadata>
  <g
     inkscape:label="Layer 1"
     inkscape:groupmode="layer"
     id="layer1"
     transform="translate(78.549462,-21.388261)">
    <g
       transform="matrix(0.1708509,0,0,0.1708509,-114.5342,21.114728)"
       id="g5674">
      <g
         style="display:inline"
         transform="matrix(0.35610559,0,0,0.35610559,-211.77238,-433.16586)"
         id="g7321">
        <g
           style="display:inline;opacity:0.6;fill:#0a314c;fill-opacity:1;stroke:none;filter:url(#filter12928-6-4)"
           transform="matrix(1.4975353,0,0,1.4975353,1184.8688,-281.12639)"
           id="g7295">
          <path
             id="path7275"
             d="m 217.42719,42.5 h 51.14562 c 1.48316,0 2.67719,1.194027 2.67719,2.67719 v 18.89562 c 0,1.483163 -1.19403,2.67719 -2.67719,2.67719 h -51.14562 c -1.48316,0 -2.67719,-1.194027 -2.67719,-2.67719 V 45.17719 c 0,-1.483163 1.19403,-2.67719 2.67719,-2.67719 z"
             style="color:#000000;clip-rule:nonzero;display:inline;overflow:visible;visibility:visible;opacity:1;isolation:auto;mix-blend-mode:normal;color-interpolation:sRGB;color-interpolation-filters:linearRGB;solid-color:#000000;solid-opacity:1;fill:#0a314c;fill-opacity:1;fill-rule:nonzero;stroke:none;stroke-width:1.04763997;stroke-linecap:round;stroke-linejoin:round;stroke-miterlimit:4;stroke-dasharray:none;stroke-dashoffset:0;stroke-opacity:1;marker:none;marker-start:none;marker-mid:none;marker-end:none;color-rendering:auto;image-rendering:auto;shape-rendering:auto;text-rendering:auto;enable-background:accumulate"
             transform="matrix(0.60957902,0,0,0.60957902,-124.04345,989.80562)"
             inkscape:connector-curvature="0" />
          <g
             transform="translate(-480.88685,480.15674)"
             id="g7281"
             style="fill:#0a314c;fill-opacity:1;stroke:none">
            <path
               transform="matrix(1.1893556,0,0,1.1893556,-94.009674,-100.31309)"
               style="fill:#0a314c;fill-opacity:1;fill-rule:evenodd;stroke:none;stroke-width:1;stroke-linecap:butt;stroke-linejoin:miter;stroke-miterlimit:4;stroke-dasharray:none;stroke-opacity:1"
               d="m 498.35922,541.09619 c 0,0.94451 -0.7657,1.71021 -1.71022,1.71021 -0.94452,0 -1.71022,-0.7657 -1.71022,-1.71021 0,-0.94453 0.7657,-1.71022 1.71022,-1.71022 0.94452,0 1.71022,0.76569 1.71022,1.71022 z"
               id="path7277"
               inkscape:connector-curvature="0" />
            <path
               transform="matrix(1.1782171,0,0,1.1782171,-91.490119,-94.25596)"
               style="fill:#0a314c;fill-opacity:1;fill-rule:evenodd;stroke:none;stroke-width:1;stroke-linecap:butt;stroke-linejoin:miter;stroke-miterlimit:4;stroke-dasharray:none;stroke-opacity:1"
               d="m 515.26222,541.03419 c 0,0.94451 -0.7657,1.71021 -1.71022,1.71021 -0.94452,0 -1.71022,-0.7657 -1.71022,-1.71021 0,-0.94453 0.7657,-1.71022 1.71022,-1.71022 0.94452,0 1.71022,0.76569 1.71022,1.71022 z"
               id="path7279"
               inkscape:connector-curvature="0" />
          </g>
          <g
             id="g7287"
             transform="matrix(0.99285047,0,0,1,0.02228826,-0.53879683)"
             style="fill:#0a314c;fill-opacity:1;stroke:none">
            <path
               style="fill:#0a314c;fill-opacity:1;stroke:none;stroke-width:2.16927004;stroke-linecap:butt;stroke-linejoin:miter;stroke-miterlimit:4;stroke-dasharray:none;stroke-opacity:1"
               d="m 10.893574,1015.5612 -5.387714,-8.2611 3.24803,-1.9488 2.696647,4.2376 2.805313,4.4083"
               id="path7283"
               inkscape:connector-curvature="0"
               sodipodi:nodetypes="ccccc"
               transform="translate(0.9793068)" />
            <path
               style="fill:#0a314c;fill-opacity:1;stroke:none;stroke-width:2.16927004;stroke-linecap:butt;stroke-linejoin:miter;stroke-miterlimit:4;stroke-dasharray:none;stroke-opacity:1"
               d="m 36.979625,1016.5092 5.984985,-9.1771 -3.24803,-1.9488 -2.71958,4.2737 -3.708082,5.827"
               id="path7285"
               inkscape:connector-curvature="0"
               sodipodi:nodetypes="ccccc"
               transform="translate(-0.97930265)" />
          </g>
          <g
             id="g7291"
             style="fill:#0a314c;fill-opacity:1;stroke:none" />
          <path
             id="path7293"
             d="m 1879.0167,-998.06976 h 49.2959 v 14.11072 h -49.2959 z"
             style="color:#000000;clip-rule:nonzero;display:inline;overflow:visible;visibility:visible;opacity:1;isolation:auto;mix-blend-mode:normal;color-interpolation:sRGB;color-interpolation-filters:linearRGB;solid-color:#000000;solid-opacity:1;fill:#0a314c;fill-opacity:1;fill-rule:evenodd;stroke:none;stroke-width:1;stroke-linecap:butt;stroke-linejoin:miter;stroke-miterlimit:4;stroke-dasharray:none;stroke-dashoffset:0;stroke-opacity:1;marker:none;marker-start:none;marker-mid:none;marker-end:none;color-rendering:auto;image-rendering:auto;shape-rendering:auto;text-rendering:auto;enable-background:accumulate"
             transform="matrix(0.61823271,0,0,0.61823271,-1152.8235,1654.3561)"
             inkscape:connector-curvature="0"
             mask="url(#mask5419-9-5-1-7)" />
        </g>
        <g
           style="display:inline;opacity:1"
           transform="matrix(1.4950128,0,0,1.4950128,1185.0465,-281.17675)"
           id="g7319">
          <path
             sodipodi:nodetypes="sssssssss"
             id="path7297"
             d="m 217.42719,42.5 h 51.14562 c 1.48316,0 2.67719,1.194027 2.67719,2.67719 v 18.89562 c 0,1.483163 -1.19403,2.67719 -2.67719,2.67719 h -51.14562 c -1.48316,0 -2.67719,-1.194027 -2.67719,-2.67719 V 45.17719 c 0,-1.483163 1.19403,-2.67719 2.67719,-2.67719 z"
             style="color:#000000;clip-rule:nonzero;display:inline;overflow:visible;visibility:visible;opacity:1;isolation:auto;mix-blend-mode:normal;color-interpolation:sRGB;color-interpolation-filters:linearRGB;solid-color:#000000;solid-opacity:1;fill:#fd8667;fill-opacity:1;fill-rule:nonzero;stroke:none;stroke-width:1.04763997;stroke-linecap:round;stroke-linejoin:round;stroke-miterlimit:4;stroke-dasharray:none;stroke-dashoffset:0;stroke-opacity:1;marker:none;marker-start:none;marker-mid:none;marker-end:none;color-rendering:auto;image-rendering:auto;shape-rendering:auto;text-rendering:auto;enable-background:accumulate"
             transform="matrix(0.60957902,0,0,0.60957902,-124.04345,989.80562)"
             inkscape:connector-curvature="0" />
          <g
             transform="translate(-480.88685,480.15674)"
             id="g7303">
            <path
               transform="matrix(1.1893556,0,0,1.1893556,-93.909189,-100.25032)"
               style="fill:#000000;fill-opacity:1;fill-rule:evenodd;stroke:#2d1203;stroke-width:0.95776898;stroke-linecap:butt;stroke-linejoin:miter;stroke-miterlimit:4;stroke-dasharray:none;stroke-opacity:1"
               d="m 498.35922,541.09619 c 0,0.94451 -0.7657,1.71021 -1.71022,1.71021 -0.94452,0 -1.71022,-0.7657 -1.71022,-1.71021 0,-0.94453 0.7657,-1.71022 1.71022,-1.71022 0.94452,0 1.71022,0.76569 1.71022,1.71022 z"
               id="path7299"
               inkscape:connector-curvature="0" />
            <path
               transform="matrix(1.1782171,0,0,1.1782171,-91.389634,-94.193194)"
               style="fill:#000000;fill-opacity:1;fill-rule:evenodd;stroke:#160901;stroke-width:0.96682298;stroke-linecap:butt;stroke-linejoin:miter;stroke-miterlimit:4;stroke-dasharray:none;stroke-opacity:1"
               d="m 515.26222,541.03419 c 0,0.94451 -0.7657,1.71021 -1.71022,1.71021 -0.94452,0 -1.71022,-0.7657 -1.71022,-1.71021 0,-0.94453 0.7657,-1.71022 1.71022,-1.71022 0.94452,0 1.71022,0.76569 1.71022,1.71022 z"
               id="path7301"
               inkscape:connector-curvature="0" />
          </g>
          <g
             id="g7309"
             transform="matrix(0.99285047,0,0,1,0.02228838,-0.53879683)">
            <path
               transform="translate(1.9928413,1.2282499)"
               style="fill:#000000;fill-opacity:1;stroke:#000000;stroke-width:1.61320996;stroke-linecap:butt;stroke-linejoin:miter;stroke-miterlimit:4;stroke-dasharray:none;stroke-opacity:1"
               d="m 10.893574,1015.5612 -5.387714,-8.2611 3.24803,-1.9488 2.696647,4.2376 2.805313,4.4083"
               id="path7305"
               inkscape:connector-curvature="0"
               sodipodi:nodetypes="ccccc" />
            <path
               transform="translate(-1.9928433,1.1962499)"
               style="fill:#000000;fill-opacity:1;stroke:#000000;stroke-width:1.61320996;stroke-linecap:butt;stroke-linejoin:miter;stroke-miterlimit:4;stroke-dasharray:none;stroke-opacity:1"
               d="m 36.979625,1016.5092 5.984985,-9.1771 -3.24803,-1.9488 -2.71958,4.2737 -3.708082,5.827"
               id="path7307"
               inkscape:connector-curvature="0"
               sodipodi:nodetypes="ccccc" />
          </g>
          <path
             sodipodi:nodetypes="sssssssssssssssssss"
             inkscape:connector-curvature="0"
             id="path7311"
             transform="matrix(0.60957902,0,0,0.60957902,-123.43387,989.80562)"
             d="m 217.57759,41.525915 c -1.97842,0 -3.57172,1.907837 -3.57172,4.278984 v 18.245784 c 0,2.371223 1.5933,4.280888 3.57172,4.280888 h 48.84482 c 1.97842,0 3.57172,-1.909741 3.57172,-4.280888 V 45.804899 c 0,-2.371223 -1.5933,-4.278984 -3.57172,-4.278984 z m 38.53963,3.575581 c 5.75002,0 10.41054,4.53868 10.41054,10.137383 0,5.598702 -4.66052,9.164484 -10.41054,9.164484 -5.75002,0 -10.41256,-3.565782 -10.41256,-9.164484 0,-5.598703 4.66254,-10.137383 10.41256,-10.137383 z m -27.73055,-0.108704 c 5.8728,0 10.6349,4.635598 10.6349,10.35385 0,5.718254 -4.7621,9.255552 -10.6349,9.255552 -5.8728,0 -10.63285,-3.537298 -10.63285,-9.255552 0,-5.718252 4.76005,-10.35385 10.63285,-10.35385 z"
             style="color:#000000;clip-rule:nonzero;display:inline;overflow:visible;visibility:visible;opacity:1;isolation:auto;mix-blend-mode:normal;color-interpolation:sRGB;color-interpolation-filters:linearRGB;solid-color:#000000;solid-opacity:1;fill:#942102;fill-opacity:1;fill-rule:nonzero;stroke:none;stroke-width:1;stroke-linecap:round;stroke-linejoin:round;stroke-miterlimit:4;stroke-dasharray:none;stroke-dashoffset:0;stroke-opacity:1;marker:none;marker-start:none;marker-mid:none;marker-end:none;filter:url(#filter5175);color-rendering:auto;image-rendering:auto;shape-rendering:auto;text-rendering:auto;enable-background:accumulate" />
          <path
             style="color:#000000;clip-rule:nonzero;display:inline;overflow:visible;visibility:visible;opacity:1;isolation:auto;mix-blend-mode:normal;color-interpolation:sRGB;color-interpolation-filters:linearRGB;solid-color:#000000;solid-opacity:1;vector-effect:none;fill:url(#linearGradient5273);fill-opacity:1;fill-rule:nonzero;stroke:none;stroke-width:3.32391;stroke-linecap:butt;stroke-linejoin:miter;stroke-miterlimit:4;stroke-dasharray:none;stroke-dashoffset:0;stroke-opacity:1;marker:none;marker-start:none;marker-mid:none;marker-end:none;color-rendering:auto;image-rendering:auto;shape-rendering:auto;text-rendering:auto;enable-background:accumulate"
             d="m 212.72855,33.8125 c -2.37123,0 -4.28088,1.907761 -4.28088,4.278984 v 58.514348 c 0,2.371223 1.90965,4.280888 4.28088,4.280888 h 58.5429 c 2.37123,0 4.28088,-1.909665 4.28088,-4.280888 V 38.091484 c 0,-2.371223 -1.90965,-4.278984 -4.28088,-4.278984 z m 43.38872,10.772013 c 6.04606,0 10.94653,4.772356 10.94653,10.65931 0,5.886952 -4.90047,9.992754 -10.94653,9.992754 -6.04606,0 -10.94865,-4.105802 -10.94865,-9.992754 0,-5.886954 4.90259,-10.65931 10.94865,-10.65931 z m -27.73065,-0.08813 c 6.1601,0 11.15516,4.862371 11.15516,10.860358 0,5.99799 -4.99506,10.07149 -11.15516,10.07149 -6.16009,0 -11.15301,-4.0735 -11.15301,-10.07149 0,-5.997987 4.99292,-10.860358 11.15301,-10.860358 z"
             transform="matrix(0.60957902,0,0,0.60957902,-123.43387,989.80562)"
             id="path7313"
             inkscape:connector-curvature="0"
             sodipodi:nodetypes="sssssssssssssssssss" />
          <g
             id="g7315" />
        </g>
      </g>
      <path
         transform="matrix(0.26458333,0,0,0.26458333,159.25674,-33.095452)"
         inkscape:connector-curvature="0"
         id="rect4772"
         d="m 210.53906,194.26367 v 9.33399 h 9.7168 v -9.33399 z m 12.85742,0 v 9.33399 h 9.7168 v -9.33399 z m 12.85743,0 v 9.33399 h 9.71875 v -9.33399 z m 12.85937,0 v 9.33399 h 9.7168 v -9.33399 z m 12.85742,0 v 9.33399 h 9.71875 v -9.33399 z m -51.43164,12.42774 v 9.33398 h 9.7168 v -9.33398 z m 12.85742,0 v 9.33398 h 9.7168 v -9.33398 z m 12.85743,0 v 9.33398 h 9.71875 v -9.33398 z m 12.85937,0 v 9.33398 h 9.7168 v -9.33398 z m 12.85742,0 v 9.33398 h 9.71875 v -9.33398 z"
         style="color:#000000;clip-rule:nonzero;display:inline;overflow:visible;visibility:visible;opacity:1;isolation:auto;mix-blend-mode:normal;color-interpolation:sRGB;color-interpolation-filters:linearRGB;solid-color:#000000;solid-opacity:1;vector-effect:none;fill:#ffffff;fill-opacity:1;fill-rule:nonzero;stroke:none;stroke-width:4.07700014;stroke-linecap:butt;stroke-linejoin:miter;stroke-miterlimit:4;stroke-dasharray:none;stroke-dashoffset:0;stroke-opacity:1;marker:none;marker-start:none;marker-mid:none;marker-end:none;color-rendering:auto;image-rendering:auto;shape-rendering:auto;text-rendering:auto;enable-background:accumulate" />
    </g>
  </g>
</svg>
